<svg id="Layer_1" enable-background="new 0 0 512 512" height="512" viewBox="0 0 512 512" width="512" xmlns="http://www.w3.org/2000/svg"><g><path d="m250.544 22.004c-135.308 0-244.998 109.689-244.998 244.998 0 104.481 65.41 193.671 157.508 228.895h174.981c92.098-35.224 157.508-124.414 157.508-228.895-.001-135.309-109.69-244.998-244.999-244.998z" fill="#422953"/><path d="m338.661 34.982 132.811 132.811c36.675-36.675 36.675-96.136 0-132.811-36.675-36.675-96.136-36.675-132.811 0z" fill="#ffed41"/><path d="m395.927 7.922 9.14 93.465 70.857-61.597c-1.426-1.637-2.893-3.25-4.452-4.809-20.665-20.664-48.564-29.682-75.545-27.059z" fill="#ffc82c"/><path d="m498.978 101.388c0-24.035-9.169-48.068-27.506-66.406l-66.406 66.406z" fill="#ffdb37"/><path d="m405.066 7.476h-.002c-24.034.001-48.066 9.169-66.403 27.506l66.405 66.406z" fill="#ffdb37"/><g><path d="m466.202 173.063c-2.911-2.911-2.911-7.63 0-10.541 33.788-33.788 33.792-88.478 0-122.27-33.787-33.788-88.478-33.792-122.27 0-2.911 2.91-7.63 2.911-10.54 0-2.911-2.911-2.911-7.63 0-10.54 39.612-39.613 103.733-39.618 143.351 0 39.614 39.614 39.618 103.734 0 143.352-2.911 2.909-7.631 2.911-10.541-.001z" fill="#85d249"/></g><path d="m383.958 78.291h-133.414-166.687c-7.205 0-12.959 6.128-12.366 13.309 1.029 12.453 3.485 23.824 6.998 34.195 9.585 1.485 11.403 6.689 24.091 6.689 14.801 0 14.801-7.085 29.601-7.085 14.801 0 14.801 7.085 29.602 7.085s14.801-7.085 29.603-7.085c14.799 0 14.799 7.085 29.598 7.085s14.799-7.085 29.599-7.085c14.801 0 14.801 7.085 29.603 7.085 14.801 0 14.801-7.085 29.603-7.085s14.802 7.085 29.604 7.085 14.802-7.085 29.604-7.085c14.804 0 14.804 7.085 29.607 7.085 12.645 0 14.496-5.165 23.989-6.673.751-2.215 1.442-4.486 2.093-6.793z" fill="#def2fe"/><path d="m71.491 91.6c1.029 12.453 3.485 23.824 6.998 34.195 9.585 1.485 11.403 6.689 24.091 6.689 14.801 0 14.801-7.085 29.601-7.085 14.801 0 14.801 7.085 29.602 7.085s14.801-7.085 29.603-7.085c14.358 0 14.788 6.668 28.316 7.066.731-1.259 1.282-1.968 1.282-1.968-19.083-26.753 2.083-52.206 2.083-52.206h-139.21c-7.205 0-12.959 6.129-12.366 13.309z" fill="#b6eaff"/><path d="m417.231 78.291h-35.26l42.269 42.269c2.632-8.935 4.497-18.566 5.356-28.961.594-7.179-5.16-13.308-12.365-13.308z" fill="#ffdb37"/><path d="m405.066 101.387 21.585-18.763c-2.274-2.638-5.642-4.333-9.42-4.333h-14.423z" fill="#f9ab21"/><path d="m262.685 363.952c0-15.531 3.362-31.052 7.382-44.077-5.467 4.368-12.395 6.837-19.635 6.837-7.161 0-13.99-2.455-19.392-6.778 4.012 13.013 7.363 28.51 7.363 44.018v60.738c0 16.869-4.331 33.361-12.438 47.966h49.158c-8.107-14.604-12.438-31.096-12.438-47.966z" fill="#b6eaff"/><g><path d="m262.685 424.689v-15.963c-2.626 3.902-7.083 6.471-12.141 6.471s-9.515-2.568-12.141-6.471v15.963c0 16.869-4.331 33.361-12.438 47.966h49.158c-8.108-14.604-12.438-31.096-12.438-47.966z" fill="#8de2fc"/></g><g><path d="m250.305 301.458c-12.046 0-23.649-3.277-33.652-9.204 1.19 1.935 2.038 4.096 2.475 6.388.848 4.457 2.255 9.285 3.942 12.56 5.257 10.201 15.885 16.504 27.361 16.504 11.614 0 22.427-6.352 27.689-16.705 1.641-3.23 3.008-7.992 3.839-12.358.449-2.358 1.334-4.578 2.579-6.555-10.168 6.041-21.989 9.37-34.233 9.37z" fill="#42a7f4"/></g><path d="m250.305 302.452c-.38-.335-.726-.674-1.082-1.012-11.657-.19-22.867-3.436-32.57-9.186 1.19 1.935 2.038 4.096 2.475 6.388.848 4.457 2.255 9.285 3.942 12.56 5.257 10.201 15.885 16.504 27.361 16.504 1.827 0 3.63-.175 5.399-.48-14.555-10.661-5.525-24.774-5.525-24.774z" fill="#2e92ed"/><path d="m423.28 123.719c-10.105 1.36-11.73 6.778-24.676 6.778-14.804 0-14.804-7.085-29.607-7.085-14.802 0-14.802 7.085-29.603 7.085-14.802 0-14.802-7.085-29.604-7.085s-14.802 7.085-29.603 7.085-14.801-7.085-29.602-7.085c-14.8 0-14.8 7.085-29.599 7.085s-14.799-7.085-29.598-7.085c-14.801 0-14.801 7.085-29.603 7.085-14.801 0-14.801-7.085-29.602-7.085-14.8 0-14.8 7.085-29.601 7.085-12.988 0-14.581-5.455-24.777-6.791 16.597 51.735 59.447 79.039 84.739 91.088 11.236 5.352 19.008 15.867 21.335 28.093 1.8 9.458 4.785 17.594 8.366 24.543 11.156 21.647 33.709 35.022 58.062 35.022 24.646 0 47.592-13.479 58.758-35.45 3.484-6.854 6.384-14.851 8.147-24.115 2.327-12.226 10.099-22.741 21.335-28.093 25.288-12.047 68.133-39.348 84.733-91.075z" fill="#56c2ff"/><path d="m243.47 263.652-.43-14.907s-9.472-12.745-9.472-31.495-12.569-28.887-12.569-28.887l-.344-29.363c-10.428-14.744.329-28.503.329-28.503-14.799 0-14.799-7.085-29.598-7.085-14.801 0-14.801 7.085-29.603 7.085-14.801 0-14.801-7.085-29.602-7.085-14.8 0-14.8 7.085-29.601 7.085-12.988 0-14.581-5.455-24.777-6.791 16.597 51.735 59.447 79.039 84.739 91.088 11.236 5.352 19.008 15.867 21.335 28.093 1.8 9.458 4.785 17.594 8.366 24.543 11.156 21.647 33.709 35.022 58.062 35.022-19.761-17.423-6.835-38.8-6.835-38.8z" fill="#42a7f4"/><path d="m314.513 484.054c-5.304-8.484-14.605-13.639-24.611-13.639h-41.359s-4.609 5.211-1.41 10.412c.519.844.588 1.861.255 2.759h60.01c2.441 0 4.848.229 7.208.642-.032-.058-.057-.117-.093-.174z" fill="#caeeff"/><path d="m211.185 470.416c-10.006 0-19.307 5.154-24.611 13.639-.036.057-.06.116-.093.174 2.36-.412 4.767-.642 7.208-.642h55.699c.333-.898.264-1.915-.255-2.759-3.198-5.202 1.41-10.412 1.41-10.412z" fill="#8de2fc"/><ellipse cx="215.447" cy="173.744" fill="#65ddff" rx="15.636" ry="15.636" transform="matrix(.993 -.122 .122 .993 -19.547 27.517)"/><ellipse cx="273.418" cy="212.43" fill="#65ddff" rx="21.701" ry="21.701" transform="matrix(.926 -.378 .378 .926 -59.979 118.994)"/><path d="m286.99 206.551c0 5.286-4.285 9.572-9.572 9.572-5.286 0-9.572-4.285-9.572-9.572 0-5.286 4.285-9.572 9.572-9.572 5.286 0 9.572 4.285 9.572 9.572z" fill="#8deaff"/><g><path d="m243.47 263.652h-.43c-4.116 0-7.453-3.337-7.453-7.453s3.337-7.453 7.453-7.453h.43c4.116 0 7.453 3.337 7.453 7.453s-3.337 7.453-7.453 7.453z" fill="#8deaff"/></g><path d="m307.398 482.593h-113.708c-11.731 0-22.789 4.905-30.636 13.305 27.173 10.392 56.662 16.102 87.49 16.102 30.827 0 60.317-5.71 87.491-16.103-7.848-8.399-18.906-13.304-30.637-13.304z" fill="#def2fe"/><path d="m248.894 484.472c.432-.55.664-1.211.691-1.879h-55.895c-11.731 0-22.79 4.905-30.637 13.304 27.174 10.393 56.663 16.103 87.491 16.103-11.767-11.766-5.088-23.154-1.65-27.528z" fill="#b6eaff"/><path d="m428.459 101.388c.475-3.188.861-6.446 1.137-9.788.342-4.135-1.428-7.913-4.361-10.381l-20.168 20.169z" fill="#ffc82c"/><path d="m405.066 101.388v-23.097h-23.096z" fill="#ffc82c"/><g><path d="m406.536 229.275c-42.011 18.522-71.358 59.421-84.06 103.542-9.592 33.318-8.15 74.79 19.424 95.808 7.897 6.019 17.242 9.764 26.089 14.272 10.818 5.512 20.951 12.205 31.059 18.951 58.646-44.758 96.494-115.375 96.494-194.846 0-13.753-1.152-27.236-3.33-40.372-27.105-10.051-58.943-9.141-85.676 2.645z" fill="#543e5b"/></g><g><path d="m173.624 353.487c-6.99-47.775-26.149-95.624-62.751-127.114-25.806-22.202-61.369-34.292-94.696-30.936-6.905 22.64-10.631 46.666-10.631 71.564 0 83.998 42.283 158.104 106.716 202.239 4.085-1.412 8.12-2.974 12.083-4.705 10.893-4.756 21.429-10.774 29.729-19.283 22.648-23.217 24.245-59.672 19.55-91.765z" fill="#543e5b"/></g><path d="m343.931 40.252c33.792-33.792 88.483-33.788 122.27 0 0-10.664 10.54-10.541 10.54-10.541-39.618-39.619-103.739-39.613-143.351 0-2.911 2.911-2.911 7.63 0 10.54 2.911 2.912 7.63 2.912 10.541.001z" fill="#60b550"/></g></svg>