<svg id="Layer_1" enable-background="new 0 0 512 512" height="512" viewBox="0 0 512 512" width="512" xmlns="http://www.w3.org/2000/svg"><g><path d="m256 22.004c-135.308 0-244.998 109.689-244.998 244.998 0 107.816 69.644 199.366 166.399 232.118h157.198c96.755-32.752 166.399-124.302 166.399-232.118 0-135.309-109.689-244.998-244.998-244.998z" fill="#56c2ff"/><g><path d="m110.991 67.846c-2.816 0-5.514-1.593-6.792-4.31l-7.004-14.894c-1.763-3.748-.153-8.216 3.596-9.979 3.747-1.762 8.216-.153 9.979 3.595l7.004 14.894c1.763 3.748.153 8.216-3.596 9.979-1.031.485-2.118.715-3.187.715z" fill="#7f707f"/></g><path d="m306.697 143.902 106.98 106.98c29.542-29.542 29.542-77.438 0-106.98s-77.439-29.542-106.98 0z" fill="#ffed41"/><path d="m360.187 197.392 60.199-45.786c-2.041-2.676-4.264-5.258-6.71-7.704-15.928-15.928-37.19-23.251-58.035-22.004z" fill="#ffc82c"/><path d="m435.832 197.392c0-19.36-7.385-38.719-22.156-53.49l-53.49 53.49z" fill="#ffdb37"/><path d="m360.187 197.392v-75.646c-19.36 0-38.719 7.385-53.49 22.156z" fill="#ffdb37"/><g><path d="m413.676 258.382c-1.919 0-3.839-.732-5.303-2.197-2.929-2.929-2.929-7.677 0-10.606 26.57-26.57 26.57-69.803 0-96.373s-69.803-26.57-96.373 0c-2.929 2.929-7.678 2.929-10.606 0-2.929-2.929-2.929-7.678 0-10.607 32.418-32.419 85.167-32.419 117.586 0 32.418 32.419 32.418 85.168 0 117.586-1.465 1.464-3.384 2.197-5.304 2.197z" fill="#ffc82c"/></g><g><path d="m280.14 187.619 12.878-97.002c.545-4.106-2.341-7.877-6.448-8.422-4.106-.544-7.876 2.342-8.421 6.448l-13.14 98.976z" fill="#ff7186"/></g><g><path d="m324.393 42.127c-2.77 0-5.433-1.54-6.737-4.194-1.827-3.717-.294-8.212 3.423-10.039l55.192-27.123c3.717-1.827 8.212-.294 10.039 3.423 1.827 3.718.294 8.212-3.423 10.039l-55.192 27.123c-1.064.523-2.192.771-3.302.771z" fill="#ff7186"/></g><g><path d="m295.497 90.947c2.699-20.332 15.206-38.061 33.454-47.425 4.914-2.522 6.853-8.548 4.332-13.462-2.523-4.914-8.551-6.853-13.463-4.332-24.082 12.357-40.587 35.754-44.149 62.586-.727 5.475 3.122 10.502 8.597 11.229 5.523.731 10.508-3.167 11.229-8.596z" fill="#ffbbcb"/></g><path d="m350.414 185.619h-202.215c-5.221 0-9.36 4.406-9.034 9.617l3.386 54.089c10.132.927 11.744 4.652 24.698 4.652 14.795 0 14.795-4.859 29.589-4.859s14.794 4.859 29.588 4.859 14.794-4.859 29.587-4.859c14.792 0 14.792 4.859 29.584 4.859s14.792-4.859 29.583-4.859c14.794 0 14.794 4.859 29.587 4.859 12.947 0 14.564-3.722 24.682-4.651l2.632-42.04z" fill="#def2fe"/><path d="m148.199 185.619c-5.221 0-9.36 4.406-9.034 9.617l3.386 54.089c10.132.927 11.744 4.652 24.698 4.652 14.795 0 14.795-4.859 29.589-4.859s14.794 4.859 29.588 4.859c2.73 0 4.955-.166 6.863-.436v-32.589c-14.491-14.491-2.234-35.333-2.234-35.333z" fill="#b6eaff"/><path d="m363.802 185.619h-15.388l23.55 23.55.872-13.933c.326-5.211-3.813-9.617-9.034-9.617z" fill="#ffdb37"/><path d="m360.187 197.392 10.806-8.218c-1.65-2.154-4.248-3.554-7.19-3.554h-4.324z" fill="#f9ab21"/><path d="m191.585 249.363c1.532-.153 3.254-.245 5.253-.245 5.526 0 8.987.678 11.926 1.527l-43.59-92.694c-1.763-3.748-6.23-5.357-9.979-3.596-3.749 1.763-5.358 6.23-3.596 9.979z" fill="#665364"/><g><path d="m118.458 86.22c-3.755 0-7.353-2.124-9.056-5.747l-7.465-15.873c-2.35-4.998-.204-10.955 4.794-13.305 4.997-2.35 10.954-.204 13.305 4.794l7.464 15.873c2.35 4.998.204 10.954-4.794 13.305-1.375.646-2.823.953-4.248.953z" fill="#665364"/></g><path d="m124.85 69.314c1.82-.856 3.952-.674 5.601.478 21.702 15.145 56.664 33.997 99.852 37.623 4.879.409 6.739 6.568 2.879 9.58l-43 33.552s-39.842-34.122-71.472-78.345z" fill="#ff7186"/><path d="m190.182 150.546 43-33.552c3.86-3.012 2-9.17-2.879-9.58-28.093-2.359-52.701-11.161-72.447-21.194h-.003s-15.244.913-12.313 17.722c.129.741.254 1.486.378 2.233 23.47 26.56 44.264 44.371 44.264 44.371z" fill="#fc9daf"/><path d="m71.136 182.263c24.753-35.576 32.533-74.528 34.711-100.902.166-2.005 1.385-3.763 3.205-4.619l6.14-2.887c13.886 52.568 14.754 105.017 14.754 105.017l-53.267 11.718c-4.782 1.052-8.339-4.308-5.543-8.327z" fill="#e80054"/><path d="m120.264 71.47c32.263 45.616 69.919 79.076 69.919 79.076-10.949 5.149-49.288 23.178-60.236 28.326 0 0-1.753-50.343-16.308-104.286z" fill="#ff4155"/><path d="m122.491 114.565c6.484 36.461 7.455 64.307 7.455 64.307 10.949-5.149 49.287-23.177 60.236-28.326 0 0-20.75-18.445-44.638-46.602l-.004-.003c0 .001-17.612-4.894-23.049 10.624z" fill="#ff7186"/><path d="m229.455 223.087-32.871 24.584c-.61.456-1.165.959-1.693 1.48.623-.02 1.264-.033 1.947-.033 14.794 0 14.794 4.859 29.588 4.859s14.794-4.859 29.587-4.859c7.982 0 11.658 1.415 15.674 2.718l-18.994-25.397c-5.469-7.312-15.926-8.82-23.238-3.352z" fill="#8de2fc"/><path d="m315.18 247.118c-14.792 0-14.792 4.859-29.583 4.859-14.792 0-14.792-4.859-29.584-4.859-14.794 0-14.794 4.859-29.587 4.859-14.794 0-14.794-4.859-29.588-4.859-14.795 0-14.795 4.859-29.589 4.859-13.006 0-14.582-3.754-24.824-4.663l3.18 50.809c.85 12.009 5.043 23.54 12.104 33.292 7.246 10.005 11.467 21.881 12.162 34.214l7.531 133.491c24.671 8.351 51.106 12.88 78.598 12.88 27.493 0 53.927-4.529 78.599-12.88l7.53-133.491c.695-12.333 4.917-24.208 12.162-34.214 7.061-9.751 11.254-21.282 12.104-33.292l3.18-50.807c-10.229.91-11.809 4.661-24.808 4.661-14.793 0-14.793-4.859-29.587-4.859z" fill="#ffdb37"/><path d="m258.359 488.75s0-13.667 0-31.333c0-17.667 16.579-28.196 16.579-28.196l-26.7-75.804c-23.876-14.928-14.949-42.996-14.949-42.996v-58.88c-1.909.27-4.133.436-6.863.436-14.794 0-14.794-4.859-29.588-4.859-14.795 0-14.795 4.859-29.589 4.859-13.006 0-14.582-3.754-24.824-4.663l3.18 50.809c.85 12.009 5.043 23.54 12.104 33.292 7.246 10.005 11.467 21.881 12.162 34.214l7.531 133.491c24.671 8.351 51.106 12.88 78.598 12.88 5.641 0 11.235-.201 16.782-.576-14.158-7.409-14.423-22.674-14.423-22.674z" fill="#ffc82c"/><ellipse cx="299.836" cy="328.431" fill="#fcf5ca" rx="13.25" ry="13.25" transform="matrix(.235 -.972 .972 .235 -89.77 542.85)"/><path d="m241.054 307.132 32.871-24.585c7.312-5.468 8.82-15.925 3.351-23.237l-7.568-10.12c-3.366-1.084-7.027-2.072-13.695-2.072-14.794 0-14.794 4.859-29.587 4.859-14.629 0-14.802-4.749-29.108-4.855l-.733.549c-7.312 5.468-8.82 15.925-3.352 23.237l24.584 32.871c5.468 7.313 15.925 8.821 23.237 3.353z" fill="#ffed41"/><path d="m274.938 429.22-32.746-4.726c-7.284-1.051-12.384-7.871-11.333-15.155l4.726-32.746c1.051-7.284 7.871-12.384 15.155-11.332l32.746 4.726c7.284 1.051 12.384 7.871 11.333 15.155l-4.726 32.746c-1.051 7.284-7.871 12.384-15.155 11.332z" fill="#ffed41"/><path d="m274.398 408.73-16.537-2.387c-3.679-.531-6.254-3.975-5.723-7.654l2.387-16.537c.531-3.679 3.975-6.254 7.653-5.723l16.537 2.387c3.678.531 6.254 3.975 5.723 7.653l-2.387 16.537c-.53 3.68-3.974 6.255-7.653 5.724z" fill="#fff399"/><g><path d="m199.572 364.865h-.365c-4.142 0-7.5-3.358-7.5-7.5s3.358-7.5 7.5-7.5h.365c4.142 0 7.5 3.358 7.5 7.5s-3.358 7.5-7.5 7.5z" fill="#fcf5ca"/></g><path d="m280.406 185.619h-15.131l-8.431 63.508c7.361.095 10.928 1.436 14.774 2.686z" fill="#ff4155"/><path d="m231.117 499.888c.335.044.667.066.997.066 3.703 0 6.924-2.742 7.425-6.514l32.334-243.544c-3.899-1.258-7.419-2.641-14.764-2.767l-32.439 244.337c-.546 4.106 2.341 7.877 6.447 8.422z" fill="#e80054"/><g><path d="m311.898 293.571c-3.626 0-6.815-2.636-7.399-6.331-.646-4.092 2.147-7.932 6.239-8.578l.36-.057c4.088-.647 7.932 2.147 8.578 6.239s-2.147 7.932-6.239 8.578l-.36.057c-.396.062-.79.092-1.179.092z" fill="#fff399"/></g><path d="m372.701 197.392.135-2.156c.184-2.936-1.05-5.616-3.096-7.397l-9.553 9.553z" fill="#ffc82c"/><path d="m360.187 197.392v-11.773h-11.773z" fill="#ffc82c"/><g><path d="m102.854 323.658c-2.904-15.439 1.068-31.409-.613-47.029-2.651-24.635-20.59-46.967-44.074-54.866-13.914-4.68-29.34-4.146-43.137.815-2.639 14.408-4.029 29.253-4.029 44.423 0 80.088 38.435 151.192 97.858 195.896.17-.128.347-.246.515-.377 14.725-11.402 22.216-30.458 22.608-49.077s-5.611-36.866-13.843-53.572c-5.811-11.795-12.853-23.288-15.285-36.213z" fill="#65ddff"/></g><g><path d="m457.835 266.778c-15.281 3.291-28.566 13.177-38.377 25.346-9.812 12.169-16.474 26.554-22.177 41.108-9.501 24.241-16.696 50.22-13.756 76.09 1.187 10.439 4.112 20.879 10.07 29.533 4.846 7.039 11.594 12.561 19.254 16.358 53.869-44.941 88.15-112.572 88.15-188.211 0-.024-.001-.048-.001-.072-5.094-.777-10.331-1.047-15.46-1.278-9.26-.418-18.642-.826-27.703 1.126z" fill="#65ddff"/></g><path d="m219.721 289.717-8.765-11.836c-1.95-2.633-1.391-6.382 1.242-8.332l11.836-8.765c2.633-1.95 6.382-1.391 8.332 1.242l8.765 11.836c1.95 2.633 1.391 6.382-1.242 8.332l-11.836 8.765c-2.634 1.95-6.383 1.391-8.332-1.242z" fill="#fff399"/><path d="m408.373 149.205c-2.515-12.212 10.607-10.607 10.607-10.607-32.419-32.419-85.168-32.419-117.586 0-2.929 2.929-2.929 7.678 0 10.607s7.678 2.929 10.607 0c26.569-26.57 69.802-26.57 96.372 0z" fill="#f9ab21"/><path d="m295.497 90.947c1.373-10.345 5.29-20.013 11.206-28.251-.002.001-.004.001-.007.002-16.025 4.447-16.873-10.772-16.873-10.772-7.452 10.675-12.389 23.109-14.152 36.389-.727 5.475 3.122 10.502 8.597 11.229 5.523.73 10.508-3.168 11.229-8.597z" fill="#fc9daf"/></g></svg>