<svg id="Layer_1" height="512" viewBox="0 0 512 512" width="512" xmlns="http://www.w3.org/2000/svg" xmlns:xlink="http://www.w3.org/1999/xlink" data-name="Layer 1"><linearGradient id="linear-gradient" gradientUnits="userSpaceOnUse" x1="201.905" x2="201.905" y1="457.123" y2="53.097"><stop offset=".322" stop-color="#a163f5"/><stop offset=".466" stop-color="#b074ee"/><stop offset=".752" stop-color="#d8a1dd"/><stop offset=".898" stop-color="#efbad3"/></linearGradient><linearGradient id="linear-gradient-2" x1="223.565" x2="223.565" xlink:href="#linear-gradient" y1="457.123" y2="53.097"/><linearGradient id="linear-gradient-3" x1="255.999" x2="255.999" xlink:href="#linear-gradient" y1="457.123" y2="53.097"/><path d="m209.866 207-5.449-9.74a6 6 0 0 0 -10.473 5.86l5.45 9.74a6 6 0 1 0 10.472-5.86z" fill="url(#linear-gradient)"/><path d="m218.905 223.118a6 6 0 1 0 -10.47 5.864l19.79 35.33a6 6 0 1 0 10.47-5.864z" fill="url(#linear-gradient-2)"/><path d="m337.87 13.94a75.334 75.334 0 0 0 -74.87 68.837l-63.457-.084-20.349-66.059a6 6 0 0 0 -7.1-4.077l-68.5 16a6 6 0 0 0 2.73 11.686l63.049-14.727 17.607 57.16-80.163-.106h-.008a6 6 0 0 0 -6 6v.31a6 6 0 0 0 .766 2.932l122.254 218.2v150.031c-19.794 1.491-47.14 5.985-47.14 19.417 0 7.145 7.323 12.328 22.387 15.842 11.88 2.772 27.586 4.3 44.223 4.3s32.335-1.526 44.215-4.3c15.063-3.515 22.385-8.7 22.385-15.842 0-13.432-27.346-17.926-47.14-19.417v-152.443l80.7-143.541a75.162 75.162 0 0 0 -5.589-150.119zm-191.5 133.1c-.054-.042-.113-.078-.167-.118l-29.32-52.339 73.8.1 16.074 52.181a47.486 47.486 0 0 0 -12.054 7c-5.263 3.86-9.422 6.911-18.43 6.911h-.06c-9.05-.015-13.21-3.08-18.476-6.961a49.016 49.016 0 0 0 -11.363-6.776zm150.4 332.439c-5.362 3.283-23.7 8.123-53.478 8.123s-48.125-4.84-53.488-8.123c3.807-2.285 14.608-5.829 34.04-7.4a5.988 5.988 0 0 0 4.077 5.421 48.491 48.491 0 0 0 30.732 0 5.99 5.99 0 0 0 4.077-5.421c19.44 1.569 30.241 5.113 34.048 7.398zm-60.94-12.25v-136.646a10.009 10.009 0 0 0 14.286-.762 5.965 5.965 0 0 0 .644-.908v138.316a36.629 36.629 0 0 1 -14.93 0zm99.112-312.519-.909-.667c-5.9-4.353-12.594-9.286-25.585-9.3h-.008a6 6 0 0 0 -.008 12c9.055.012 13.214 3.079 18.48 6.962q1.035.764 2.112 1.535l-77.784 138.36-8.64 15.367-84.272-150.413a36.457 36.457 0 0 0 17.863 4.216h.077c12.938 0 19.627-4.905 25.529-9.234a38.623 38.623 0 0 1 8.5-5.16l18.415 59.78a6 6 0 1 0 11.469-3.532l-17.848-57.938c7.655.445 11.575 3.321 16.423 6.895 5.9 4.35 12.59 9.281 25.572 9.3h.069c12.941 0 19.632-4.9 25.535-9.23l.783-.573a6 6 0 0 0 -7.072-9.695l-.805.59c-5.265 3.859-9.425 6.908-18.44 6.908h-.054c-9.046-.012-13.2-3.077-18.467-6.958-5.9-4.352-12.593-9.284-25.591-9.3-.567 0-1.118.012-1.661.029l-15.383-49.952 165.315.219zm-14-71.856-27.329-.037a44.325 44.325 0 0 1 8.132-20.043zm-10.87-28.739a44.323 44.323 0 0 1 19.928-9v29.843zm68.745 28.815-26.434-.03 20.971-20.97a44.193 44.193 0 0 1 8.916 22.11 5.992 5.992 0 0 0 -3.453-1.11zm2.866 15.07a44.475 44.475 0 0 1 -8.717 18.785l-1.879-1.876 9.507-16.909zm-39.683-21.693v-31.707a44.255 44.255 0 0 1 22.845 8.866zm8.829 74.635 4.431-7.882a56.656 56.656 0 0 0 39.222-50.749c.059-1.137.088-2.184.088-3.2a56.7 56.7 0 0 0 -56.7-56.7c-.726 0-1.452.012-2.107.044a56.682 56.682 0 0 0 -54.234 50.345l-6.5-.008a63.162 63.162 0 1 1 75.8 68.149z" fill="url(#linear-gradient-3)"/></svg>